<svg width="68.091mm" height="68.091mm" fill="none" stroke-linecap="square" stroke-miterlimit="10" version="1.1" viewBox="0 0 257.35 257.35" xmlns="http://www.w3.org/2000/svg">
 <clipPath>
  <path d="m0 0h432.74v329.2h-432.74z"/>
 </clipPath>
 <path d="m103.49 154.2c-26.518-2.599-42.462-5.5463-59.347-10.971-28.515-9.1601-43.62-21.897-43.643-36.801-0.0115-7.2938 2.558-13.039 8.0519-18.002 4.3582-3.9374 6.0251-4.3342 8.3673-1.9921 2.1952 2.1952 2.0189 2.9175-1.7519 7.1757-5.3024 5.9878-6.6767 8.473-6.6767 12.074 0 8.4231 7.3065 15.979 22.5 23.269 53.991 25.904 165.54 22.564 206.52-6.184 12.829-8.9988 14.843-18.471 5.9223-27.848-4.8481-5.0964-5.2209-9.351-0.86366-9.8578 1.9812-0.23043 3.5589 0.76576 6.8256 4.3097 8.3166 9.0225 10.04 17.2 5.5312 26.247-11.906 23.892-64.031 39.644-129.33 39.083-10.233-0.088-20.18-0.3144-22.105-0.50307zm-28.934-25.758c-0.84524-1.0184-1.0924-7.3281-0.87245-22.277l0.3068-20.856 3.292-6.6813c3.8172-7.7473 7.4554-11.145 20.727-19.356 5.2144-3.2259 9.4806-6.4489 9.4806-7.1622 0-2.6066-5.6012-3.2474-28.384-3.2474-25.943 0-31.187 0.85461-35.987 5.8648-3.9148 4.0861-4.6268 8.3262-4.5368 27.014 0.0652 13.529-0.19055 16.648-1.4699 17.927-1.2566 1.2566-2.0276 1.3308-4.0858 0.39295l-2.5369-1.1559 6e-3 -18.771c3e-3 -10.324 0.4868-20.505 1.075-22.623 1.5085-5.4326 8.3384-11.913 15.3-14.518 5.2915-1.9798 7.5944-2.1305 32.55-2.1305 23.626 0 26.929-0.19121 27.466-1.5902 0.33562-0.87464 0.38137-1.9605 0.10166-2.4131s-4.9938-3.5949-10.476-6.9829c-12.188-7.5323-14.384-7.6573-14.824-0.84339-0.36769 5.695-2.1946 7.6081-5.7281 5.9981-2.2199-1.0115-2.4704-1.7224-2.4704-7.0122 0-4.3876 0.51327-6.5391 2.0156-8.449 2.4242-3.0818 7.9622-5.0906 11.744-4.26 1.5142 0.33256 8.8122 4.4167 16.218 9.0758 7.4057 4.6591 14.153 8.2853 14.994 8.0581 4.5313-1.2245 11.191-1.4835 16.311-0.63437l5.7826 0.95893 11.019-6.9587c18.439-11.645 20.268-12.297 26.37-9.4018 4.3597 2.0688 5.9024 5.3108 5.7882 12.164-0.11307 6.7858-2.1433 9.2601-5.6799 6.9225-1.5526-1.0262-2.1371-2.6324-2.3647-6.4974-0.27469-4.666-0.52073-5.1342-2.6977-5.1342-1.3175 0-6.8065 2.7558-12.198 6.1239-12.024 7.512-11.924 7.4218-10.337 9.3337 1.0938 1.318 5.0908 1.5424 27.476 1.5424 30.306 0 34.053 0.64859 41.059 7.1066 7.1651 6.6045 7.5001 7.9748 7.5001 30.672 0 16.709-0.25021 20.184-1.5296 21.246-1.1696 0.97068-2.111 1.0046-4 0.14388l-2.4704-1.1256v-19.153c0-21.916-0.63013-24.042-8.3508-28.171-3.9563-2.1157-5.3919-2.2285-30.872-2.4249-22.89-0.17641-26.943 0.0144-28.259 1.3306-0.84511 0.84511-1.3232 1.8818-1.0624 2.3038 0.26079 0.42197 4.6524 3.3785 9.7592 6.5702 12.093 7.5577 17.963 13.278 21.334 20.79 2.6596 5.9263 2.6954 6.2918 2.5928 26.485-0.10618 20.917-0.51034 23.226-4.0642 23.226-3.7406 0-4.0776-1.8352-4.0776-22.211 0-22.65-0.62821-25.118-8.2728-32.499-5.6831-5.4868-25.242-17.29-28.651-17.29-5.8494 0-6.0289 0.63951-6.3148 22.5l-0.26156 20-2.305 0.32676c-4.8966 0.69414-5.195-0.5655-5.195-21.93 0-21.959 0.57424-19.939-6-21.107-2.34-0.41586-23.966 13.174-29.175 18.334-6.8232 6.7587-7.8252 11.03-7.8252 33.358 0 18.618-0.37765 20.518-4.0776 20.518-0.92265 0-2.2082-0.6394-2.8568-1.4209zm62.633-79.082c6.209-1.8439 8.0156-3.6397 5.845-5.8103-5.668-5.668-29.544-4.3066-29.544 1.6847 0 1.275 5.3488 4.0709 9.5 4.9657 4.2161 0.90884 9.328 0.6064 14.199-0.84003z" fill="#fff"/>
 <path d="m33.466 160.3c0-3.8182 3.0952-6.9134 6.9134-6.9134 1.8335 0 3.592 0.72838 4.8885 2.0249 1.2965 1.2965 2.0249 3.055 2.0249 4.8885 0 3.8182-3.0952 6.9134-6.9134 6.9134s-6.9134-3.0952-6.9134-6.9134z" fill-rule="evenodd" stroke="#fff" stroke-linecap="butt" stroke-linejoin="round" stroke-width="8"/>
 <path d="m103.49 200.78c-26.518-2.599-42.462-5.5463-59.347-10.971-28.515-9.1601-43.62-21.897-43.643-36.801-0.0115-7.2938-2.335-32.21 3.1589-37.173 4.3582-3.9374 7.9734 4.0476 7.6554 7.3446 0 0 0.87348 1.3884-0.50919 5.2782-2.6788 7.5361-2.3144 20.205-2.3144 23.806 0 8.4231 7.3065 15.979 22.5 23.269 53.991 25.904 165.54 22.564 206.52-6.184 12.829-8.9988 13.741-24.554 10.23-37.011-2.3575-8.3654-0.23174-13.524 4.1255-14.031 1.9812-0.23043-0.954-4.8578 1.3819 8.6616 2.0892 12.092 6.187 26.184 1.6783 35.232-11.906 23.892-64.031 39.644-129.33 39.083-10.233-0.088-20.18-0.3144-22.105-0.50307z" fill="#fff"/>
 <path d="m63.421 165.5s33.78 13.203 88.696 8.8547c58.658-4.6444 81.665-21.494 81.665-21.494" fill="none" stroke="#fffffd" stroke-linecap="round" stroke-miterlimit="10" stroke-width="6.3"/>
 <path d="m33.466 206.78c0-3.8182 3.0952-6.9134 6.9134-6.9134 1.8335 0 3.592 0.72838 4.8885 2.0249 1.2965 1.2965 2.0249 3.055 2.0249 4.8885 0 3.8182-3.0952 6.9134-6.9134 6.9134s-6.9134-3.0952-6.9134-6.9134z" fill-rule="evenodd" stroke="#fff" stroke-linecap="butt" stroke-linejoin="round" stroke-width="8"/>
 <path d="m103.49 247.26c-26.518-2.599-42.462-5.5463-59.347-10.971-28.515-9.1601-43.62-21.897-43.643-36.801-0.0115-7.2938-2.335-32.21 3.1589-37.173 4.3582-3.9374 7.9734 4.0476 7.6554 7.3446 0 0 0.87348 1.3884-0.50919 5.2782-2.6788 7.5361-2.3144 20.205-2.3144 23.806 0 8.4231 7.3065 15.979 22.5 23.269 53.991 25.904 165.54 22.564 206.52-6.184 12.829-8.9988 13.741-24.554 10.23-37.011-2.3575-8.3654-0.23174-13.524 4.1255-14.031 1.9812-0.23043-0.954-4.8578 1.3819 8.6616 2.0892 12.092 6.187 26.184 1.6783 35.232-11.906 23.892-64.031 39.644-129.33 39.083-10.233-0.088-20.18-0.3144-22.105-0.50307z" fill="#fff"/>
 <path d="m63.421 211.98s33.78 13.203 88.696 8.8547c58.658-4.6444 81.665-21.494 81.665-21.494" fill="none" stroke="#fff" stroke-linecap="round" stroke-miterlimit="10" stroke-width="6.3"/>
</svg>
