<svg xmlns="http://www.w3.org/2000/svg" width="257.352" height="257.352" fill="none" stroke-linecap="square" stroke-miterlimit="10" viewBox="0 0 257.35 257.35">
    <path fill="#fff" d="M103.49 154.2c-26.518-2.599-42.462-5.546-59.347-10.971C15.628 134.069.523 121.332.5 106.428c-.012-7.294 2.558-13.039 8.052-18.002 4.358-3.937 6.025-4.334 8.367-1.992 2.195 2.195 2.02 2.917-1.752 7.176-5.302 5.987-6.676 8.473-6.676 12.074 0 8.423 7.306 15.979 22.5 23.269 53.99 25.904 165.54 22.564 206.52-6.184 12.829-9 14.843-18.471 5.922-27.848-4.848-5.097-5.221-9.351-.864-9.858 1.981-.23 3.56.766 6.826 4.31 8.316 9.022 10.04 17.2 5.531 26.246-11.906 23.893-64.031 39.645-129.33 39.084-10.233-.089-20.18-.315-22.105-.504zm-28.934-25.758c-.845-1.018-1.092-7.328-.872-22.277l.306-20.856 3.292-6.681C81.1 70.88 84.738 67.483 98.01 59.272c5.215-3.226 9.48-6.45 9.48-7.163 0-2.606-5.6-3.247-28.383-3.247-25.943 0-31.187.855-35.987 5.865-3.915 4.086-4.627 8.326-4.537 27.014.065 13.529-.19 16.648-1.47 17.927-1.256 1.256-2.027 1.33-4.086.393l-2.536-1.156.006-18.771c.003-10.324.486-20.505 1.075-22.623 1.508-5.433 8.338-11.913 15.3-14.518 5.291-1.98 7.594-2.13 32.55-2.13 23.626 0 26.929-.192 27.466-1.59.335-.875.38-1.961.101-2.414s-4.994-3.595-10.476-6.983c-12.188-7.532-14.384-7.657-14.824-.843-.367 5.695-2.194 7.608-5.728 5.998-2.22-1.012-2.47-1.722-2.47-7.012 0-4.388.513-6.54 2.015-8.45 2.425-3.081 7.963-5.09 11.744-4.26 1.515.333 8.813 4.417 16.218 9.077 7.406 4.659 14.153 8.285 14.994 8.058 4.532-1.225 11.191-1.484 16.311-.635l5.783.96 11.019-6.96c18.439-11.644 20.268-12.296 26.37-9.401 4.36 2.069 5.902 5.31 5.788 12.164-.113 6.786-2.143 9.26-5.68 6.922-1.552-1.026-2.137-2.632-2.364-6.497-.275-4.666-.521-5.134-2.698-5.134-1.318 0-6.807 2.755-12.198 6.124-12.024 7.512-11.924 7.421-10.337 9.333 1.094 1.318 5.09 1.543 27.476 1.543 30.306 0 34.053.648 41.059 7.106 7.165 6.605 7.5 7.975 7.5 30.672 0 16.71-.25 20.184-1.53 21.246-1.17.97-2.11 1.005-4 .144l-2.47-1.126V79.752c0-21.916-.63-24.042-8.35-28.17-3.957-2.116-5.393-2.229-30.873-2.425-22.89-.177-26.943.014-28.259 1.33-.845.845-1.323 1.882-1.062 2.304.26.422 4.652 3.378 9.759 6.57 12.093 7.558 17.963 13.278 21.334 20.79 2.66 5.926 2.695 6.292 2.593 26.485-.106 20.917-.51 23.226-4.064 23.226-3.741 0-4.078-1.835-4.078-22.21 0-22.65-.628-25.119-8.273-32.5-5.683-5.487-25.242-17.29-28.65-17.29-5.85 0-6.03.64-6.316 22.5l-.261 20-2.305.327c-4.897.694-5.195-.566-5.195-21.93 0-21.959.574-19.939-6-21.107-2.34-.416-23.966 13.174-29.175 18.334-6.823 6.759-7.825 11.03-7.825 33.358 0 18.618-.378 20.518-4.078 20.518-.923 0-2.208-.64-2.857-1.42zm62.633-79.082c6.209-1.844 8.016-3.64 5.845-5.81-5.668-5.668-29.544-4.307-29.544 1.684 0 1.275 5.349 4.071 9.5 4.966 4.216.909 9.328.606 14.199-.84z"/>
    <path stroke="#fff" stroke-linecap="butt" stroke-linejoin="round" stroke-width="8" d="M33.47 160.3a6.913 6.913 0 1 1 13.827 0 6.913 6.913 0 0 1-13.827 0z"/>
    <path fill="#fff" d="M103.49 200.78c-26.518-2.599-42.462-5.546-59.347-10.971C15.628 180.649.523 167.912.5 153.008c-.011-7.294-2.335-32.21 3.159-37.173 4.358-3.937 7.973 4.048 7.655 7.345 0 0 .874 1.388-.509 5.278-2.679 7.536-2.314 20.205-2.314 23.806 0 8.423 7.306 15.979 22.5 23.269 53.99 25.904 165.54 22.564 206.52-6.184 12.829-8.999 13.74-24.554 10.23-37.011-2.358-8.366-.232-13.524 4.125-14.031 1.981-.23-.954-4.858 1.382 8.661 2.09 12.092 6.187 26.184 1.678 35.232-11.906 23.892-64.03 39.644-129.33 39.083-10.233-.088-20.18-.314-22.105-.503z"/>
    <path stroke="#fff" stroke-linecap="round" stroke-width="6.3" d="M63.42 165.5s33.78 13.203 88.696 8.855c58.658-4.645 81.665-21.494 81.665-21.494"/>
    <path stroke="#fff" stroke-linecap="butt" stroke-linejoin="round" stroke-width="8" d="M33.47 206.782a6.913 6.913 0 1 1 13.827 0 6.913 6.913 0 0 1-13.827 0z"/>
    <path fill="#fff" d="M103.49 247.262c-26.518-2.599-42.462-5.546-59.347-10.971C15.628 227.131.523 214.394.5 199.49c-.011-7.294-2.335-32.21 3.159-37.173 4.358-3.937 7.973 4.048 7.655 7.345 0 0 .874 1.388-.509 5.278-2.679 7.536-2.314 20.205-2.314 23.806 0 8.423 7.306 15.979 22.5 23.269 53.99 25.904 165.54 22.564 206.52-6.184 12.829-8.999 13.74-24.554 10.23-37.011-2.358-8.366-.232-13.524 4.125-14.031 1.981-.23-.954-4.858 1.382 8.661 2.09 12.092 6.187 26.184 1.678 35.232-11.906 23.892-64.03 39.644-129.33 39.083-10.233-.088-20.18-.314-22.105-.503z"/>
    <path stroke="#fff" stroke-linecap="round" stroke-width="6.3" d="M63.42 211.982s33.78 13.203 88.696 8.855c58.658-4.645 81.665-21.494 81.665-21.494"/>
</svg>
